<?xml version="1.0" encoding="utf-8"?>
<!-- Generator: Adobe Illustrator 25.2.1, SVG Export Plug-In . SVG Version: 6.00 Build 0)  -->
<!DOCTYPE svg PUBLIC "-//W3C//DTD SVG 1.1//EN" "http://www.w3.org/Graphics/SVG/1.1/DTD/svg11.dtd" [
	<!ENTITY ns_extend "http://ns.adobe.com/Extensibility/1.0/">
	<!ENTITY ns_ai "http://ns.adobe.com/AdobeIllustrator/10.0/">
	<!ENTITY ns_graphs "http://ns.adobe.com/Graphs/1.0/">
	<!ENTITY ns_vars "http://ns.adobe.com/Variables/1.0/">
	<!ENTITY ns_imrep "http://ns.adobe.com/ImageReplacement/1.0/">
	<!ENTITY ns_sfw "http://ns.adobe.com/SaveForWeb/1.0/">
	<!ENTITY ns_custom "http://ns.adobe.com/GenericCustomNamespace/1.0/">
	<!ENTITY ns_adobe_xpath "http://ns.adobe.com/XPath/1.0/">
]>
<svg version="1.1" id="Layer_1" xmlns:x="&ns_extend;" xmlns:i="&ns_ai;" xmlns:graph="&ns_graphs;"
	 xmlns="http://www.w3.org/2000/svg" xmlns:xlink="http://www.w3.org/1999/xlink" x="0px" y="0px" viewBox="0 0 465 140"
	 style="enable-background:new 0 0 465 140;" xml:space="preserve">
<style type="text/css">
	.st0{fill:#FFFFFF;}
</style>
<metadata>
	<sfw  xmlns="&ns_sfw;">
		<slices></slices>
		<sliceSourceBounds  bottomLeftOrigin="true" height="139.9" width="463.9" x="0.6" y="-139.9"></sliceSourceBounds>
	</sfw>
</metadata>
<g>
	<path class="st0" d="M70.3,0C33.6,0,3.5,28.3,0.6,64.4l37.5,15.5c3.2-2.2,7-3.4,11.1-3.4c0.4,0,0.7,0,1.1,0L67,52.3
		c0-0.1,0-0.2,0-0.3c0-14.5,11.8-26.4,26.4-26.4c14.5,0,26.4,11.8,26.4,26.4s-11.8,26.4-26.4,26.4c-0.2,0-0.4,0-0.6,0l-23.8,17
		c0,0.3,0,0.6,0,0.9c0,10.9-8.9,19.8-19.8,19.8c-9.6,0-17.6-6.8-19.4-15.9L2.9,89c8.3,29.4,35.3,50.9,67.3,50.9
		c38.6,0,69.9-31.3,69.9-69.9C140.2,31.4,108.9,0,70.3,0"/>
	<path class="st0" d="M44.4,106.1l-8.6-3.5c1.5,3.2,4.2,5.8,7.7,7.3c7.6,3.1,16.3-0.4,19.4-8c1.5-3.7,1.5-7.7,0-11.4s-4.4-6.5-8-8.1
		C51.3,81,47.4,81,44,82.3l8.9,3.7c5.6,2.3,8.2,8.7,5.9,14.3C56.4,105.8,50,108.6,44.4,106.1"/>
	<path class="st0" d="M110.9,52c0-9.7-7.9-17.6-17.6-17.6c-9.7,0-17.6,7.9-17.6,17.6s7.9,17.6,17.6,17.6S110.9,61.6,110.9,52
		 M80.2,52c0-7.3,5.9-13.2,13.2-13.2s13.2,5.9,13.2,13.2c0,7.3-5.9,13.2-13.2,13.2S80.2,59.3,80.2,52"/>
	<path class="st0" d="M214.9,48l-4.7,8.2c-3.6-2.5-8.5-4-12.8-4c-4.9,0-7.9,2-7.9,5.6c0,4.4,5.4,5.4,13.3,8.3
		c8.6,3,13.5,6.6,13.5,14.4c0,10.7-8.4,16.8-20.6,16.8c-5.9,0-13.1-1.5-18.5-4.9l3.4-9.1c4.5,2.4,9.8,3.7,14.5,3.7
		c6.4,0,9.5-2.4,9.5-5.9c0-4-4.6-5.2-12.1-7.7c-8.5-2.9-14.5-6.6-14.5-15.3c0-9.8,7.8-15.4,19.1-15.4C205,42.8,211.4,45.3,214.9,48"
		/>
	<polygon class="st0" points="251.5,53.1 251.5,96.3 240.5,96.3 240.5,53.1 224.5,53.1 224.5,43.6 267.5,43.6 267.5,53.1 	"/>
	<polygon class="st0" points="290.6,53.1 290.6,64.9 311.8,64.9 311.8,74.4 290.6,74.4 290.6,86.8 315.1,86.8 315.1,96.3 
		279.6,96.3 279.6,43.6 315.1,43.6 315.1,53.1 	"/>
	<path class="st0" d="M339.8,86.1l-3.5,10.2h-11.6l19.8-52.7h11.1l20.3,52.7h-12l-3.6-10.2H339.8L339.8,86.1z M350,56.3l-7.2,21.1
		h14.6L350,56.3z"/>
	<polygon class="st0" points="432.6,64.1 418.1,94.8 411.9,94.8 397.8,64.4 397.8,96.3 387.1,96.3 387.1,43.6 397.6,43.6 
		415.4,81.8 432.5,43.6 443.1,43.6 443.1,96.3 432.6,96.3 	"/>
	<path class="st0" d="M464.4,50.4c0,4.5-3.4,7.3-7.3,7.3c-3.9,0-7.3-2.8-7.3-7.3s3.4-7.3,7.3-7.3C461.1,43,464.4,45.8,464.4,50.4
		 M451.1,50.4c0,3.8,2.7,6.2,6.1,6.2c3.3,0,6.1-2.4,6.1-6.2c0-3.8-2.7-6.1-6.1-6.1C453.9,44.1,451.1,46.5,451.1,50.4 M457.3,46.5
		c1.9,0,2.5,1,2.5,2.1c0,1-0.6,1.7-1.3,2l1.7,3.2h-1.4l-1.4-2.8h-1.5v2.8h-1.2v-7.2L457.3,46.5L457.3,46.5z M455.9,50h1.3
		c0.8,0,1.3-0.5,1.3-1.2s-0.4-1.1-1.3-1.1h-1.3V50L455.9,50z"/>
</g>
</svg>
